<?xml version="1.0" encoding="UTF-8"?>
<svg version="1.1" xmlns="http://www.w3.org/2000/svg" width="1024" height="1024">
<path d="M0 0 C3.30823878 -0.00217488 6.61613676 -0.02036199 9.92431641 -0.03930664 C21.58698376 -0.06894535 33.08930653 0.29279693 44.69628906 1.48335266 C50.28258657 2.05473995 55.72531666 2.27547361 61.34228516 2.18530273 C61.34228516 2.84530273 61.34228516 3.50530273 61.34228516 4.18530273 C62.17888672 4.22268555 63.01548828 4.26006836 63.87744141 4.29858398 C72.92513467 4.80958327 81.50077512 6.1856397 90.34228516 8.18530273 C91.02559906 8.33736176 91.70891296 8.48942078 92.41293335 8.64608765 C125.66990143 16.08312196 157.66633251 27.37659084 188.34228516 42.18530273 C189.24624023 42.61875 190.15019531 43.05219727 191.08154297 43.4987793 C202.19526902 48.85073427 212.89785527 54.62374326 223.34228516 61.18530273 C224.31423828 61.79116211 225.28619141 62.39702148 226.28759766 63.02124023 C228.98713869 64.72095126 231.66752103 66.4469036 234.34228516 68.18530273 C235.22529297 68.75249023 236.10830078 69.31967773 237.01806641 69.90405273 C254.83577202 81.53608185 271.44578528 94.56543277 286.94335938 109.12719727 C289.20510484 111.24835362 291.47582269 113.29135922 293.90478516 115.22045898 C299.11257387 119.41840406 303.54287384 124.48513369 308.09228516 129.37280273 C308.70990723 130.03626709 309.3275293 130.69973145 309.96386719 131.38330078 C317.74335278 139.75472583 325.30554195 148.17403083 332.34228516 157.18530273 C333.44636719 158.56202148 333.44636719 158.56202148 334.57275391 159.96655273 C384.24973632 222.8529122 412.55940701 300.88208324 420.34228516 380.18530273 C420.43799805 381.11044678 420.53371094 382.03559082 420.63232422 382.98876953 C421.63804644 394.00935828 421.58597956 405.06557022 421.59228516 416.12280273 C421.59329727 417.7202533 421.59329727 417.7202533 421.59432983 419.34997559 C421.52145539 491.97651072 401.41739704 569.40702591 360.61376953 630.28393555 C359.21761693 632.37173057 357.84986901 634.47672555 356.48291016 636.58374023 C349.83562732 646.76676565 342.76367783 656.5553991 335.34228516 666.18530273 C334.87435547 666.79889648 334.40642578 667.41249023 333.92431641 668.04467773 C328.28137542 675.44214659 322.41710895 682.48909459 316.04541016 689.27124023 C314.01283151 691.4624305 312.05108331 693.67452689 310.10400391 695.93920898 C305.91218311 700.75132365 301.42655106 705.24758615 296.90478516 709.74780273 C296.0971875 710.55926758 295.28958984 711.37073242 294.45751953 712.20678711 C290.12446771 716.53285576 285.7164461 720.70300066 281.07348633 724.69482422 C278.90832607 726.55892003 276.81593621 728.4969123 274.71728516 730.43530273 C257.73794967 745.71412815 238.74405049 759.18053991 219.34228516 771.18530273 C218.54677246 771.67772461 217.75125977 772.17014648 216.93164062 772.67749023 C207.99599489 778.17957176 198.97955036 783.49980446 189.71728516 788.43530273 C189.00056641 788.81831543 188.28384766 789.20132813 187.54541016 789.59594727 C182.59713366 792.18530273 182.59713366 792.18530273 180.34228516 792.18530273 C180.01228516 792.84530273 179.68228516 793.50530273 179.34228516 794.18530273 C177.45922852 795.09082031 177.45922852 795.09082031 174.99462891 796.01733398 C173.63120361 796.54061279 173.63120361 796.54061279 172.24023438 797.07446289 C170.80574951 797.62432861 170.80574951 797.62432861 169.34228516 798.18530273 C167.5082088 798.93421998 165.67619548 799.68820779 163.84619141 800.44702148 C104.23959482 824.88929173 104.23959482 824.88929173 84.34228516 824.18530273 C84.01228516 824.84530273 83.68228516 825.50530273 83.34228516 826.18530273 C81.26555472 826.46349404 79.18549569 826.72472882 77.09863281 826.91235352 C74.17182131 827.20218303 71.29048358 827.63023518 68.38525391 828.08764648 C-16.73130774 841.11159658 -107.44505647 826.80817076 -183.76025391 786.18481445 C-185.82522965 785.09706218 -187.90758111 784.04840277 -189.99365234 783.00170898 C-213.66187385 771.00699961 -236.43457735 756.39711172 -256.65771484 739.18530273 C-257.72609996 738.29002475 -258.79514246 737.39553083 -259.86474609 736.50170898 C-266.5904779 730.86679575 -273.17854001 725.10321167 -279.65771484 719.18530273 C-280.62966797 718.31776367 -281.60162109 717.45022461 -282.60302734 716.55639648 C-289.15056923 710.67094268 -295.35140148 704.51354699 -301.40771484 698.12280273 C-302.46369873 697.01485352 -302.46369873 697.01485352 -303.54101562 695.88452148 C-304.19312012 695.18842773 -304.84522461 694.49233398 -305.51708984 693.77514648 C-306.09942383 693.15502686 -306.68175781 692.53490723 -307.28173828 691.89599609 C-308.65771484 690.18530273 -308.65771484 690.18530273 -309.65771484 687.18530273 C-310.31771484 687.18530273 -310.97771484 687.18530273 -311.65771484 687.18530273 C-313.21630859 685.48999023 -313.21630859 685.48999023 -315.09521484 683.06030273 C-316.16642578 681.68551758 -316.16642578 681.68551758 -317.25927734 680.28295898 C-318.05076172 679.26073242 -318.84224609 678.23850586 -319.65771484 677.18530273 C-320.51810923 676.09940975 -321.38013407 675.01480696 -322.24365234 673.93139648 C-332.4525822 661.10090514 -342.0040368 648.06100572 -350.52294922 634.04174805 C-351.55796231 632.34849513 -352.61454155 630.6684728 -353.67333984 628.98999023 C-372.29721918 599.38862105 -400.65771484 551.90221557 -400.65771484 516.18530273 C-401.31771484 515.85530273 -401.97771484 515.52530273 -402.65771484 515.18530273 C-403.20483398 512.921875 -403.20483398 512.921875 -403.63037109 509.93920898 C-404.29387459 505.55361273 -405.00883886 501.1945288 -405.84130859 496.83764648 C-408.87630293 480.6761818 -411.16814451 464.56222362 -412.65771484 448.18530273 C-412.76575439 447.02659668 -412.76575439 447.02659668 -412.87597656 445.84448242 C-419.2338085 374.23876777 -403.50702905 301.09608063 -373.65771484 236.18530273 C-372.94878437 234.61525973 -372.24040173 233.04496917 -371.53271484 231.47436523 C-361.28567825 208.96707173 -348.17847988 188.15251151 -333.65771484 168.18530273 C-333.15981445 167.49903809 -332.66191406 166.81277344 -332.14892578 166.10571289 C-325.08219919 156.40795422 -317.6280047 147.153919 -309.65771484 138.18530273 C-308.79919922 137.21463867 -307.94068359 136.24397461 -307.05615234 135.24389648 C-301.53374649 129.11252443 -295.7909212 123.22002712 -289.97021484 117.37280273 C-289.26936768 116.66728271 -288.56852051 115.9617627 -287.84643555 115.23486328 C-283.27866831 110.68106639 -278.54710418 106.38930391 -273.65771484 102.18530273 C-272.44287875 101.11645968 -271.22930896 100.04617541 -270.01708984 98.97436523 C-262.47759744 92.34753195 -254.84056307 86.01558209 -246.65771484 80.18530273 C-246.08537109 79.77634766 -245.51302734 79.36739258 -244.92333984 78.94604492 C-226.37974878 65.76147243 -206.99949191 54.35988172 -186.65771484 44.18530273 C-185.47242188 43.58274658 -185.47242188 43.58274658 -184.26318359 42.96801758 C-127.84223887 14.3799439 -63.02412803 -0.0046158 0 0 Z M-219.65771484 140.18530273 C-219.65771484 316.40530273 -219.65771484 492.62530273 -219.65771484 674.18530273 C-216.43442966 672.89598866 -213.63122149 671.71681072 -210.63818359 670.07592773 C-209.49530884 669.44992676 -209.49530884 669.44992676 -208.3293457 668.8112793 C-207.09970093 668.1301709 -207.09970093 668.1301709 -205.84521484 667.43530273 C-204.9706665 666.95287109 -204.09611816 666.47043945 -203.19506836 665.97338867 C-195.42222413 661.66008658 -187.75469737 657.17448154 -180.09179688 652.66967773 C-171.21777955 647.47044453 -162.23682913 642.48081685 -153.23364258 637.51049805 C-147.15736559 634.14954501 -141.12013932 630.74421131 -135.15771484 627.18530273 C-128.03042032 622.93398116 -120.79350019 618.89106515 -113.53271484 614.87280273 C-112.66164597 614.39061279 -112.66164597 614.39061279 -111.77297974 613.89868164 C-110.9010347 613.4160083 -110.9010347 613.4160083 -110.01147461 612.92358398 C-91.97224177 602.93758848 -74.06780341 592.72379262 -56.22021484 582.40014648 C-52.03988603 579.98231975 -47.8536399 577.57594702 -43.65771484 575.18530273 C-36.65391157 571.19193497 -29.65416466 567.1915409 -22.65771484 563.18530273 C-21.63049316 562.59749023 -20.60327148 562.00967773 -19.54492188 561.40405273 C21.33307513 538.60626509 21.33307513 538.60626509 58.34228516 510.18530273 C58.88336914 509.69481445 59.42445313 509.20432617 59.98193359 508.69897461 C81.37584302 489.04920208 95.77998449 462.03579914 97.54736328 432.79199219 C97.64451477 429.33691849 97.67135384 425.89167516 97.65478516 422.43530273 C97.64987061 421.21246582 97.64495605 419.98962891 97.63989258 418.72973633 C97.32981764 394.677462 90.42785422 371.51387943 74.34228516 353.18530273 C73.77767578 352.48920898 73.21306641 351.79311523 72.63134766 351.07592773 C68.13862094 345.6340334 62.97584313 341.40619039 57.34228516 337.18530273 C56.61783203 336.62198242 55.89337891 336.05866211 55.14697266 335.47827148 C28.37005578 315.55885771 -4.20632574 308.09142673 -37.09130859 308.16967773 C-38.3280835 308.17193359 -39.5648584 308.17418945 -40.83911133 308.17651367 C-42.23432007 308.18086426 -42.23432007 308.18086426 -43.65771484 308.18530273 C-43.6591814 309.05607421 -43.66064796 309.92684568 -43.66215897 310.82400417 C-43.69931805 332.07694551 -43.75845275 353.32972852 -43.84161758 374.58254147 C-43.88131456 384.86053138 -43.9137543 395.13844575 -43.92871094 405.41650391 C-43.94177609 414.38179957 -43.96886388 423.34692838 -44.01232791 432.31213003 C-44.03483396 437.05286663 -44.0506321 441.79339828 -44.04959869 446.53419304 C-44.0488456 451.01012602 -44.06705296 455.48560783 -44.09888268 459.96142387 C-44.10729688 461.59100786 -44.10919044 463.22064297 -44.10351753 464.8502388 C-44.05624178 480.53864634 -46.78663387 494.93791424 -53.65771484 509.18530273 C-54.07537109 510.0837793 -54.49302734 510.98225586 -54.92333984 511.90795898 C-69.30625195 540.63245299 -101.08195383 557.39742223 -128.65771484 571.18530273 C-128.65771484 458.65530273 -128.65771484 346.12530273 -128.65771484 230.18530273 C17.06405403 231.29768265 17.06405403 231.29768265 38.96728516 236.87280273 C39.99466797 237.12989014 41.02205078 237.38697754 42.08056641 237.65185547 C90.06712438 250.08010838 133.13014028 278.92808211 158.82666016 321.75561523 C172.34416894 345.07807757 180.53418779 370.40492156 183.34228516 397.18530273 C183.45443359 398.25006836 183.56658203 399.31483398 183.68212891 400.41186523 C188.47518522 453.33245966 174.97653349 506.38172967 141.85009766 548.18920898 C137.52290649 553.3589218 132.98747757 558.30133875 128.34228516 563.18530273 C127.47216797 564.13469727 127.47216797 564.13469727 126.58447266 565.10327148 C120.82796342 571.19244331 113.988983 576.12215016 107.34228516 581.18530273 C106.44509766 581.8775293 105.54791016 582.56975586 104.62353516 583.28295898 C90.72841658 593.725741 75.25666111 602.05709661 60.15429688 610.59545898 C57.19568814 612.26818516 54.2395915 613.94529527 51.28369141 615.62280273 C49.26170116 616.76889223 47.23956907 617.9147315 45.21728516 619.06030273 C44.29407471 619.58350098 43.37086426 620.10669922 42.41967773 620.64575195 C32.22636497 626.40675045 21.93637699 631.94472642 11.52978516 637.31030273 C1.62010909 642.44182378 -8.20242687 647.71241058 -17.98583984 653.07983398 C-31.66727959 660.58434989 -45.41312074 667.97697412 -59.22021484 675.24780273 C-59.95151611 675.63291016 -60.68281738 676.01801758 -61.4362793 676.41479492 C-66.01439646 678.81762773 -70.6079234 681.18902727 -75.20849609 683.54858398 C-76.33892334 684.13051514 -77.46935059 684.71244629 -78.6340332 685.31201172 C-80.85238702 686.45313892 -83.07315468 687.58958924 -85.29663086 688.72070312 C-86.31039795 689.24269287 -87.32416504 689.76468262 -88.36865234 690.30249023 C-89.26890137 690.76252441 -90.16915039 691.22255859 -91.09667969 691.6965332 C-93.85001928 693.29709229 -96.22062952 695.1409595 -98.65771484 697.18530273 C-70.44825631 704.36304274 -41.90023973 709.21193724 -12.65771484 708.18530273 C-11.59931396 708.1642749 -11.59931396 708.1642749 -10.51953125 708.14282227 C34.26774118 707.23718011 78.32149187 696.15447174 118.34228516 676.18530273 C119.53797119 675.59168945 119.53797119 675.59168945 120.7578125 674.98608398 C150.37094935 660.14469147 175.57342515 640.05474118 199.34228516 617.18530273 C199.90536377 616.66653564 200.46844238 616.14776855 201.04858398 615.61328125 C202.56608655 614.25941544 202.56608655 614.25941544 202.34228516 612.18530273 C203.00228516 612.18530273 203.66228516 612.18530273 204.34228516 612.18530273 C205.75935017 610.63641772 207.10038012 609.0176874 208.40478516 607.37280273 C209.11763672 606.47948242 209.83048828 605.58616211 210.56494141 604.66577148 C210.97848877 604.14289551 211.39203613 603.62001953 211.81811523 603.08129883 C212.99344857 601.61923913 214.18695668 600.17177756 215.38793945 598.73071289 C264.71341651 539.41773684 283.78316873 460.27861746 277.09277344 384.35375977 C272.64786975 339.22509794 257.59625749 292.22027874 229.34228516 256.18530273 C228.31924632 254.8119429 227.29829312 253.4370261 226.27978516 252.06030273 C225.30101955 250.76833214 224.32185099 249.47666671 223.34228516 248.18530273 C222.84599609 247.51370117 222.34970703 246.84209961 221.83837891 246.15014648 C205.97275193 225.08518152 184.98483202 204.89246437 162.34228516 191.18530273 C161.68228516 191.18530273 161.02228516 191.18530273 160.34228516 191.18530273 C159.00104382 189.85992459 157.66893787 188.52528338 156.34228516 187.18530273 C154.84122624 186.14967684 153.30298037 185.16643108 151.73681641 184.23217773 C150.84486572 183.69947266 149.95291504 183.16676758 149.03393555 182.61791992 C147.6087561 181.78502441 147.6087561 181.78502441 146.15478516 180.93530273 C144.6725647 180.06760254 144.6725647 180.06760254 143.16040039 179.18237305 C134.75818672 174.3236869 126.28069085 169.96313719 117.34228516 166.18530273 C116.49118164 165.82484863 115.64007812 165.46439453 114.76318359 165.09301758 C11.55864823 121.94712436 -114.8032138 140.18530273 -219.65771484 140.18530273 Z " fill="#A65EF7" transform="translate(508.65771484375,93.814697265625)"/>
<path d="M0 0 C0.66 0 1.32 0 2 0 C2 176.22 2 352.44 2 534 C8.93 530.04 8.93 530.04 16 526 C16.66 526.33 17.32 526.66 18 527 C6.47835991 534.48291572 6.47835991 534.48291572 1 537 C-0.84294557 535.15705443 -0.12385505 532.55671632 -0.13100848 530.10392681 C-0.12838146 529.24662466 -0.12575445 528.38932252 -0.12304783 527.50604153 C-0.12420167 526.59991939 -0.12535552 525.69379725 -0.12654433 524.76021686 C-0.12921893 521.68383095 -0.12468194 518.607496 -0.12025452 515.53111267 C-0.12069005 513.31935649 -0.12156462 511.10760037 -0.12284368 508.89584452 C-0.12509223 502.78685379 -0.12106247 496.6778804 -0.11606562 490.56889188 C-0.1122073 484.6671988 -0.1130248 478.76550768 -0.11374746 472.86381365 C-0.11506349 460.78562518 -0.1117119 448.70744217 -0.10573006 436.62925529 C-0.09981963 424.66469229 -0.09596545 412.70013155 -0.09487724 400.73556709 C-0.0948085 399.99255396 -0.09473976 399.24954082 -0.09466894 398.48401214 C-0.09433062 394.71085703 -0.09402923 390.93770191 -0.09374207 387.1645468 C-0.09163983 360.41658108 -0.08489739 333.66861834 -0.07543945 306.9206543 C-0.06625992 280.93009456 -0.05917391 254.93953564 -0.05493164 228.94897461 C-0.05480011 228.14829217 -0.05466859 227.34760972 -0.05453308 226.52266418 C-0.05321459 218.48212144 -0.05193877 210.4415787 -0.05069422 202.40103596 C-0.04815778 186.02049549 -0.04533653 169.63995507 -0.04234314 153.25941467 C-0.04220585 152.5062099 -0.04206856 151.75300513 -0.04192711 150.97697597 C-0.03272137 100.65131605 -0.01685484 50.32565787 0 0 Z " fill="#9B56EA" transform="translate(287,234)"/>
<path d="M0 0 C2.31 0 4.62 0 7 0 C-3.07135169 6.71423446 -17.26082761 8.96229371 -28.8125 11.875 C-30.03445068 12.18526123 -31.25640137 12.49552246 -32.51538086 12.81518555 C-33.67175049 13.10047119 -34.82812012 13.38575684 -36.01953125 13.6796875 C-37.05182861 13.93476074 -38.08412598 14.18983398 -39.14770508 14.45263672 C-41.8487224 14.97096941 -44.25889739 15.10638336 -47 15 C-47.33 15.66 -47.66 16.32 -48 17 C-50.07673044 17.2781913 -52.15678946 17.53942608 -54.24365234 17.72705078 C-57.17046384 18.0168803 -60.05180157 18.44493245 -62.95703125 18.90234375 C-114.52521555 26.79295218 -202.17160366 33.55226422 -248 3 C-240.068978 3.83665405 -232.52485309 6.24044241 -224.8671875 8.38476562 C-215.74609425 10.89891312 -206.72073385 12.80273559 -197.30517578 13.75830078 C-192.83833348 14.22665218 -188.38976606 14.84865311 -183.9375 15.4375 C-181.89846973 15.70467315 -179.85940706 15.97159919 -177.8203125 16.23828125 C-176.3338623 16.43284912 -176.3338623 16.43284912 -174.81738281 16.63134766 C-173.88764648 16.75300293 -172.95791016 16.8746582 -172 17 C-170.79875488 17.15734619 -170.79875488 17.15734619 -169.57324219 17.31787109 C-161.06276734 18.42735974 -152.5623266 19.38377195 -144 20 C-144 20.66 -144 21.32 -144 22 C-96.20932263 21.12362977 -50.40267697 17.34532969 -4.59741211 2.75634766 C-2 2 -2 2 0 2 C0 1.34 0 0.68 0 0 Z " fill="#7B52CE" transform="translate(640,903)"/>
<path d="M0 0 C0.33 0 0.66 0 1 0 C1.33 78.21 1.66 156.42 2 237 C6.62 234.36 11.24 231.72 16 229 C16.66 229.33 17.32 229.66 18 230 C6.47835991 237.48291572 6.47835991 237.48291572 1 240 C-0.92734261 238.07265739 -0.12296152 235.18057392 -0.12908131 232.61554426 C-0.12616847 231.68852046 -0.12325563 230.76149666 -0.12025452 229.80638123 C-0.12110894 228.82955779 -0.12196337 227.85273435 -0.12284368 226.8463102 C-0.12450145 223.54652911 -0.11897228 220.24679795 -0.11352539 216.94702148 C-0.11324356 214.59222413 -0.11340118 212.23742669 -0.1139679 209.88262939 C-0.11425602 203.46759631 -0.10835691 197.05258174 -0.10139394 190.63755298 C-0.09531949 184.61936854 -0.09477212 178.60118191 -0.09374207 172.58299495 C-0.09155123 160.6595745 -0.0848903 148.73616088 -0.07543945 136.81274414 C-0.06626615 125.22745803 -0.05918492 113.64217377 -0.05493164 102.05688477 C-0.05466892 101.34325555 -0.05440619 100.62962633 -0.05413551 99.89437198 C-0.05283051 96.3144496 -0.05156679 92.7345272 -0.05032361 89.15460479 C-0.03995002 59.43639867 -0.02225673 29.71819966 0 0 Z " fill="#8A51E9" transform="translate(287,531)"/>
<path d="M0 0 C0 0.33 0 0.66 0 1 C-2.5422482 0.88304427 -5.08348964 0.75645743 -7.625 0.625 C-8.66527344 0.57859375 -8.66527344 0.57859375 -9.7265625 0.53125 C-14.43757694 0.27887423 -19.04450207 -0.27015448 -23.7109375 -0.96875 C-30.79546126 -2.01481901 -37.85581898 -2.65652122 -45 -3.125 C-46.27149902 -3.20919189 -47.54299805 -3.29338379 -48.85302734 -3.38012695 C-58.44575288 -3.96048861 -68.01548469 -4.18838431 -77.625 -4.1875 C-78.90503906 -4.18830566 -80.18507813 -4.18911133 -81.50390625 -4.18994141 C-88.32452836 -4.16245734 -88.32452836 -4.16245734 -95 -3 C-96.51105159 -2.95507364 -98.02393859 -2.9571521 -99.53515625 -2.99609375 C-105.21340029 -3.05340765 -110.78858983 -2.60176631 -116.4375 -2.0625 C-117.41654297 -1.97548828 -118.39558594 -1.88847656 -119.40429688 -1.79882812 C-124.78404082 -1.3195256 -124.78404082 -1.3195256 -130 0 C-132.06145107 0.068991 -134.12501401 0.08467727 -136.1875 0.0625 C-137.81751953 0.04896484 -137.81751953 0.04896484 -139.48046875 0.03515625 C-140.31191406 0.02355469 -141.14335937 0.01195313 -142 0 C-142 -0.33 -142 -0.66 -142 -1 C-95.71713769 -8.83569904 -46.14303079 -9.31258234 0 0 Z " fill="#D968FC" transform="translate(586,101)"/>
<path d="M0 0 C7.931022 0.83665405 15.47514691 3.24044241 23.1328125 5.38476562 C32.25390575 7.89891312 41.27926615 9.80273559 50.69482422 10.75830078 C55.161663 11.22665181 59.61024965 11.84855622 64.0625 12.4375 C66.09892045 12.70471595 68.135379 12.97164171 70.171875 13.23828125 C71.16251953 13.36799316 72.15316406 13.49770508 73.17382812 13.63134766 C82.76894628 14.88295688 92.36225214 16.1196288 102 17 C102 17.33 102 17.66 102 18 C92.1781262 18.25472154 82.91070344 17.55366437 73.1875 16.125 C70.52260511 15.74405622 67.85701347 15.36810963 65.19140625 14.9921875 C63.93473145 14.81397461 62.67805664 14.63576172 61.38330078 14.45214844 C58.72078466 14.09632654 56.07820676 13.79210026 53.40234375 13.5703125 C43.5161414 12.7319789 34.09641512 10.46948073 24.5 8.0625 C23.80046204 7.88714722 23.10092407 7.71179443 22.38018799 7.53112793 C14.82295626 5.62344271 7.35419927 3.5951212 0 1 C0 0.67 0 0.34 0 0 Z " fill="#895BE3" transform="translate(392,906)"/>
<path d="M0 0 C-2.07985514 2.07985514 -3.05617682 2.50381716 -5.78125 3.3671875 C-6.91361084 3.73299927 -6.91361084 3.73299927 -8.06884766 4.10620117 C-8.87112793 4.35990479 -9.6734082 4.6136084 -10.5 4.875 C-17.11287024 7.01860359 -23.57755154 9.33498401 -30 12 C-35.60451794 14.19076034 -41.28019233 16.13311833 -47 18 C-47.66 17.34 -48.32 16.68 -49 16 C-9.62695939 -0.35073093 -9.62695939 -0.35073093 0 0 Z " fill="#C560EF" transform="translate(386,115)"/>
<path d="M0 0 C3.56764921 1.44397943 5.08059709 3.13585933 7.171875 6.33203125 C7.7505835 7.20738525 8.32929199 8.08273926 8.92553711 8.98461914 C9.52760986 9.91781982 10.12968262 10.85102051 10.75 11.8125 C11.36818604 12.75923584 11.98637207 13.70597168 12.62329102 14.68139648 C13.85605502 16.57548618 15.08409237 18.47266152 16.30712891 20.37304688 C17.7672555 22.63883317 19.24483352 24.89154618 20.73046875 27.140625 C21.46768462 28.28025605 22.2035073 29.42079037 22.9375 30.5625 C23.56527344 31.53316406 24.19304688 32.50382812 24.83984375 33.50390625 C26 36 26 36 25.69140625 38.33984375 C25.46324219 38.88769531 25.23507812 39.43554688 25 40 C22 36.375 22 36.375 22 33 C21.34 33 20.68 33 20 33 C20 32.01 20 31.02 20 30 C19.34 30 18.68 30 18 30 C17.319375 28.453125 17.319375 28.453125 16.625 26.875 C14.45911497 22.5197727 11.75953669 18.6334559 8.9375 14.6875 C8.50195801 14.07696777 8.06641602 13.46643555 7.61767578 12.83740234 C5.93126473 10.51045152 4.27858886 8.27612347 2.234375 6.25 C0.4192424 4.41189104 0.33723797 2.49556095 0 0 Z " fill="#C05AEA" transform="translate(847,262)"/>
<path d="M0 0 C7.68625556 1.16312089 14.31202174 3.55579786 21.375 6.75 C22.88247803 7.42107788 22.88247803 7.42107788 24.42041016 8.10571289 C27.28698636 9.38961799 30.1450672 10.69044106 33 12 C33.72832031 12.33177246 34.45664062 12.66354492 35.20703125 13.00537109 C42.47137394 16.34349191 42.47137394 16.34349191 45 18 C45.495 19.485 45.495 19.485 46 21 C41.0276578 19.50829734 36.58154261 17.39542583 32 15 C32 14.34 32 13.68 32 13 C30.92685547 12.77957031 30.92685547 12.77957031 29.83203125 12.5546875 C22.6697147 10.94247136 16.39564255 8.54785332 9.8125 5.3046875 C7.16512836 3.95617085 7.16512836 3.95617085 4.8125 3.5078125 C2.52991655 2.86829558 1.60469216 1.69905258 0 0 Z " fill="#C65AE8" transform="translate(660,122)"/>
<path d="M0 0 C8.06728799 -0.51603121 14.70836191 1.35311315 22.375 3.75 C23.53 4.09804687 24.685 4.44609375 25.875 4.8046875 C33.00459585 6.97736344 40.02502344 9.37400173 47 12 C43.50857495 13.16380835 42.58621742 12.76312657 39.1875 11.625 C35.44839225 10.43086299 31.88824742 9.57910068 28 9 C22.63797842 7.96648057 17.50996807 6.58317799 12.3515625 4.796875 C8.27064568 3.41397295 4.13297512 2.21659602 0 1 C0 0.67 0 0.34 0 0 Z " fill="#C45AE6" transform="translate(610,107)"/>
<path d="M0 0 C4.79077635 -0.28773432 8.00617556 0.55830025 12.375 2.5 C13.43460937 2.9640625 14.49421875 3.428125 15.5859375 3.90625 C16.38257813 4.2671875 17.17921875 4.628125 18 5 C18 5.66 18 6.32 18 7 C19.2375 7.0825 20.475 7.165 21.75 7.25 C27.79137746 7.89556984 33.317419 9.9327328 39 12 C39 12.66 39 13.32 39 14 C39.66 14.33 40.32 14.66 41 15 C36.00199926 14.32310541 31.44486488 12.98147699 26.6875 11.375 C25.91293457 11.1157373 25.13836914 10.85647461 24.34033203 10.58935547 C16.07169171 7.76848667 8.02904532 4.43521179 0 1 C0 0.67 0 0.34 0 0 Z " fill="#875AE1" transform="translate(351,891)"/>
<path d="M0 0 C0.66 0.33 1.32 0.66 2 1 C-0.39849512 3.39849512 -2.76042184 4.45850282 -5.8125 5.9375 C-8.88065887 7.42774859 -11.85217318 8.90946391 -14.76171875 10.69140625 C-17 12 -17 12 -19 12 C-19.21011719 12.60714844 -19.42023438 13.21429687 -19.63671875 13.83984375 C-21.53028535 16.84025157 -23.5218247 17.33306151 -26.8125 18.5625 C-30.00838116 19.77336181 -32.85420928 20.90947365 -35.76171875 22.71484375 C-36.50035156 23.13894531 -37.23898437 23.56304688 -38 24 C-38.66 23.67 -39.32 23.34 -40 23 C-34.34895908 19.63971661 -28.68085665 16.30962874 -23 13 C-22.00000977 12.41734375 -21.00001953 11.8346875 -19.96972656 11.234375 C-16.83947358 9.41737234 -13.70207876 7.61333264 -10.5625 5.8125 C-9.54986084 5.22380127 -8.53722168 4.63510254 -7.49389648 4.02856445 C-6.54844971 3.4893335 -5.60300293 2.95010254 -4.62890625 2.39453125 C-3.78400635 1.90831299 -2.93910645 1.42209473 -2.06860352 0.92114258 C-1.38596436 0.61716553 -0.7033252 0.31318848 0 0 Z " fill="#8854E0" transform="translate(349,734)"/>
<path d="M0 0 C0.66 0.33 1.32 0.66 2 1 C-4.82885719 8.56568957 -11.82387278 15.94966256 -19 23.1875 C-20.09429321 24.30112915 -20.09429321 24.30112915 -21.21069336 25.43725586 C-21.90428955 26.13214111 -22.59788574 26.82702637 -23.3125 27.54296875 C-23.92738281 28.16196045 -24.54226563 28.78095215 -25.17578125 29.41870117 C-27.02470605 31.0214161 -28.77095178 32.01248981 -31 33 C-31 32.01 -31 31.02 -31 30 C-29.36186111 28.9539222 -27.68875445 27.96222979 -26 27 C-22.41193179 23.82194466 -19.0701959 20.39464889 -15.6875 17 C-14.29047852 15.62714844 -14.29047852 15.62714844 -12.86523438 14.2265625 C-11.98544922 13.34742188 -11.10566406 12.46828125 -10.19921875 11.5625 C-9.39315186 10.75941406 -8.58708496 9.95632813 -7.7565918 9.12890625 C-5.68178221 7.07434282 -5.68178221 7.07434282 -6 4 C-5.34 4 -4.68 4 -4 4 C-4 3.34 -4 2.68 -4 2 C-2.125 0.9375 -2.125 0.9375 0 0 Z " fill="#8454D6" transform="translate(823,782)"/>
<path d="M0 0 C0.66 0.33 1.32 0.66 2 1 C-0.80893883 3.99837889 -3.62343546 6.17378929 -7.125 8.3125 C-12.55598138 11.68950323 -17.7954157 15.28566543 -23 19 C-23.66 18.67 -24.32 18.34 -25 18 C-18.28218086 10.61039894 -8.9940668 4.28947801 0 0 Z " fill="#B75BE8" transform="translate(294,153)"/>
<path d="M0 0 C4.98606172 4.25099401 7.22230775 9.05247038 9.8125 15 C10.21919922 15.88945312 10.62589844 16.77890625 11.04492188 17.6953125 C12.97276628 22.03701251 14.24461756 25.18225982 14 30 C10.95519442 26.41842018 9.34933944 22.47829182 7.5625 18.1875 C5.82968212 14.040419 4.08398635 10.04049947 1.77734375 6.17578125 C0 3 0 3 0 0 Z " fill="#BE5CEC" transform="translate(882,319)"/>
<path d="M0 0 C5.93332422 0.39244034 9.61401251 3.0403137 14.3125 6.375 C15.04017578 6.87 15.76785156 7.365 16.51757812 7.875 C21.86836364 11.60509093 21.86836364 11.60509093 23 15 C18.03231242 13.44759763 13.82132943 10.48945219 10 7 C10 6.34 10 5.68 10 5 C9.278125 5.103125 8.55625 5.20625 7.8125 5.3125 C3.87958411 4.87550935 2.53678077 2.89917803 0 0 Z " fill="#C55AEA" transform="translate(728,155)"/>
<path d="M0 0 C0.66 0.33 1.32 0.66 2 1 C-7.66007905 12.88669302 -7.66007905 12.88669302 -14 15 C-15.34291094 14.70763193 -16.67871882 14.37829212 -18 14 C-17.52578613 13.64695801 -17.05157227 13.29391602 -16.56298828 12.93017578 C-14.41573606 11.33012824 -12.27035107 9.72759558 -10.125 8.125 C-9.37863281 7.56941406 -8.63226562 7.01382813 -7.86328125 6.44140625 C-7.14785156 5.90644531 -6.43242188 5.37148438 -5.6953125 4.8203125 C-5.03547363 4.32805176 -4.37563477 3.83579102 -3.69580078 3.32861328 C-1.88280739 1.96315594 -1.88280739 1.96315594 0 0 Z " fill="#9F59F1" transform="translate(561,608)"/>
<path d="M0 0 C1.32 0.66 2.64 1.32 4 2 C1.62794139 2.98684881 -0.74723487 3.9645755 -3.125 4.9375 C-3.79015625 5.21529297 -4.4553125 5.49308594 -5.140625 5.77929688 C-9.08853349 7.38555376 -12.73530369 8.4752165 -17 9 C-16.34 8.67 -15.68 8.34 -15 8 C-15 7.34 -15 6.68 -15 6 C-13.43979133 5.34865075 -11.87671421 4.70417036 -10.3125 4.0625 C-9.44238281 3.70285156 -8.57226562 3.34320312 -7.67578125 2.97265625 C-5.11820735 2.0429688 -2.6778677 1.45837375 0 1 C0 0.67 0 0.34 0 0 Z " fill="#8759E0" transform="translate(664,894)"/>
<path d="M0 0 C3.64138867 3.64138867 4.58666025 9.0640994 6.1875 13.875 C6.56841797 14.97714844 6.94933594 16.07929688 7.34179688 17.21484375 C7.87450195 18.80619141 7.87450195 18.80619141 8.41796875 20.4296875 C8.74563232 21.40147949 9.0732959 22.37327148 9.41088867 23.37451172 C10.01354292 26.06035664 9.92623777 27.44519985 9 30 C8.67 28.02 8.34 26.04 8 24 C7.34 24 6.68 24 6 24 C4.99353274 20.56435978 3.9959455 17.12620371 3 13.6875 C2.71382812 12.71103516 2.42765625 11.73457031 2.1328125 10.72851562 C1.86210938 9.79072266 1.59140625 8.85292969 1.3125 7.88671875 C1.06113281 7.02264404 0.80976562 6.15856934 0.55078125 5.26831055 C0 3 0 3 0 0 Z " fill="#AF56E0" transform="translate(903,364)"/>
<path d="M0 0 C-2.87701494 2.45296512 -4.66942002 3.34749761 -8.4375 3.5 C-13.77607868 3.87172326 -18.74753336 5.04708679 -23.921875 6.37890625 C-27.03330472 7.00672011 -29.83525218 7.10896587 -33 7 C-29.89737667 5.27992353 -27.00149506 4.43498459 -23.53515625 3.7109375 C-22.48779297 3.49179688 -21.44042969 3.27265625 -20.36132812 3.046875 C-19.27271484 2.82515625 -18.18410156 2.6034375 -17.0625 2.375 C-15.43538086 2.03082031 -15.43538086 2.03082031 -13.77539062 1.6796875 C-9.10081979 0.71431823 -4.7908956 -0.14252466 0 0 Z " fill="#D467FB" transform="translate(444,101)"/>
<path d="M0 0 C-2.37333638 1.44030719 -4.74857726 2.87730087 -7.125 4.3125 C-7.79015625 4.71662109 -8.4553125 5.12074219 -9.140625 5.53710938 C-19.85956555 12 -19.85956555 12 -23 12 C-22 9 -22 9 -19.890625 7.90234375 C-19.01921875 7.58394531 -18.1478125 7.26554688 -17.25 6.9375 C-16.38890625 6.61652344 -15.5278125 6.29554688 -14.640625 5.96484375 C-13.76921875 5.64644531 -12.8978125 5.32804688 -12 5 C-10.33127491 4.33850262 -8.66397001 3.67336916 -7 3 C-7 2.01 -7 1.02 -7 0 C-3.86650268 -1.04449911 -3.01031744 -0.93423645 0 0 Z " fill="#8456DC" transform="translate(723,868)"/>
<path d="M0 0 C5.875 3.625 5.875 3.625 7 7 C8.49257757 8.23299886 9.98682397 9.46424413 11.5 10.671875 C13.59072054 12.52303381 14.81075051 14.48936219 16 17 C16 17.99 16 18.98 16 20 C14.29115995 18.37660195 12.62553283 16.70680947 11 15 C11 14.34 11 13.68 11 13 C10.34 13 9.68 13 9 13 C7.08984375 10.91796875 7.08984375 10.91796875 4.9375 8.1875 C3.86822266 6.84751953 3.86822266 6.84751953 2.77734375 5.48046875 C1 3 1 3 0 0 Z " fill="#8658DC" transform="translate(188,768)"/>
<path d="M0 0 C4.55742267 3.94155474 6.20574206 7.23948767 8 13 C8 13.66 8 14.32 8 15 C8.99 15.33 9.98 15.66 11 16 C10.34 17.32 9.68 18.64 9 20 C7.48987869 17.23456804 5.99369852 14.46183193 4.5 11.6875 C4.07074219 10.90181641 3.64148438 10.11613281 3.19921875 9.30664062 C2.79316406 8.54931641 2.38710937 7.79199219 1.96875 7.01171875 C1.59169922 6.31522217 1.21464844 5.61872559 0.82617188 4.90112305 C0 3 0 3 0 0 Z " fill="#8A58DF" transform="translate(135,684)"/>
<path d="M0 0 C0.66 0.33 1.32 0.66 2 1 C-3.28 4.96 -8.56 8.92 -14 13 C-14.66 12.67 -15.32 12.34 -16 12 C-15.67 11.01 -15.34 10.02 -15 9 C-13.68 9 -12.36 9 -11 9 C-10.67 8.01 -10.34 7.02 -10 6 C-9.01 6 -8.02 6 -7 6 C-6.67 5.01 -6.34 4.02 -6 3 C-5.01 3 -4.02 3 -3 3 C-3 2.34 -3 1.68 -3 1 C-2.01 0.67 -1.02 0.34 0 0 Z " fill="#8556DD" transform="translate(762,839)"/>
<path d="M0 0 C1.74949772 2.62424658 2.65389981 4.55727216 3.625 7.5 C3.88539062 8.2734375 4.14578125 9.046875 4.4140625 9.84375 C5 12 5 12 5 15 C5.99 15.33 6.98 15.66 8 16 C8.33 19.63 8.66 23.26 9 27 C6.76378443 24.76378443 6.26866265 23.32135971 5.2734375 20.3515625 C4.9640625 19.42859375 4.6546875 18.505625 4.3359375 17.5546875 C4.01882812 16.58789062 3.70171875 15.62109375 3.375 14.625 C3.05015625 13.6659375 2.7253125 12.706875 2.390625 11.71875 C2.08382812 10.79320312 1.77703125 9.86765625 1.4609375 8.9140625 C1.04013916 7.6448999 1.04013916 7.6448999 0.61083984 6.35009766 C0 4 0 4 0 0 Z " fill="#8756D7" transform="translate(112,624)"/>
<path d="M0 0 C5.35852494 0.39208719 9.14168125 2.3357387 13 6 C13 6.66 13 7.32 13 8 C13.99 8.33 14.98 8.66 16 9 C15.01 9.495 15.01 9.495 14 10 C11.53857997 8.61286881 9.22149631 7.18623319 6.875 5.625 C6.21628906 5.19960938 5.55757813 4.77421875 4.87890625 4.3359375 C3.23027994 3.25733312 1.61219991 2.13232839 0 1 C0 0.67 0 0.34 0 0 Z " fill="#8558DE" transform="translate(282,854)"/>
<path d="M0 0 C4.26546416 1.52338006 5.82076842 4.13362139 8 8 C9.13588949 10.96297982 10.10699536 13.955666 11 17 C7.85177192 14.06072511 5.54542155 11.0143222 3.25 7.375 C2.63640625 6.41335938 2.0228125 5.45171875 1.390625 4.4609375 C0 2 0 2 0 0 Z " fill="#8758DD" transform="translate(158,726)"/>
<path d="M0 0 C-1.92989218 1.19982444 -3.86919228 2.38452818 -5.8125 3.5625 C-7.43091797 4.55443359 -7.43091797 4.55443359 -9.08203125 5.56640625 C-12 7 -12 7 -15 6 C-12.87748883 3.69895986 -10.84451444 2.18105541 -8.0625 0.75 C-7.39347656 0.39421875 -6.72445313 0.0384375 -6.03515625 -0.328125 C-3.61730731 -1.12634 -2.36988243 -0.82707306 0 0 Z " fill="#BF5EEE" transform="translate(322,141)"/>
<path d="M0 0 C2.65171248 2.37094293 4.1490052 4.83568087 5.75 8 C6.19859375 8.86625 6.6471875 9.7325 7.109375 10.625 C8 13 8 13 7 16 C7 15.34 7 14.68 7 14 C6.34 14 5.68 14 5 14 C4.1533966 12.61217515 3.32324661 11.21430603 2.5 9.8125 C2.0359375 9.03519531 1.571875 8.25789063 1.09375 7.45703125 C-0.10729647 4.75896614 -0.20741043 2.9193018 0 0 Z " fill="#B75CF1" transform="translate(756,376)"/>
<path d="M0 0 C5.26267902 3.84147426 7.83207458 6.51152543 9 13 C4.6180876 11.53936253 2.05288059 7.98797296 0 4 C0 2.68 0 1.36 0 0 Z " fill="#B359EC" transform="translate(737,346)"/>
<path d="M0 0 C4.03867994 0.55414446 6.16829957 2.61616573 9.125 5.3125 C10.42824219 6.48232422 10.42824219 6.48232422 11.7578125 7.67578125 C13.76711788 9.7585978 14.91992563 11.34835675 16 14 C15.56429687 13.61328125 15.12859375 13.2265625 14.6796875 12.828125 C11.78362989 10.29564172 8.97845268 7.98591137 5.75 5.875 C3.1545213 4.10535543 1.6825836 2.61735227 0 0 Z " fill="#BB57E3" transform="translate(798,208)"/>
<path d="M0 0 C1.98 0 3.96 0 6 0 C6 0.99 6 1.98 6 3 C6.763125 3.12375 7.52625 3.2475 8.3125 3.375 C11 4 11 4 14 6 C14 6.66 14 7.32 14 8 C10.45265111 7.33694413 7.81990835 5.86707876 4.75 4 C3.85796875 3.46375 2.9659375 2.9275 2.046875 2.375 C1.37140625 1.92125 0.6959375 1.4675 0 1 C0 0.67 0 0.34 0 0 Z " fill="#8859E1" transform="translate(298,864)"/>
<path d="M0 0 C3.70694893 0.55158102 5.10342371 1.88226654 7.4375 4.75 C10.16021422 8.01256273 12.95071971 11.04312214 16 14 C15.67 14.66 15.34 15.32 15 16 C12.49599357 13.5248518 9.99748094 11.04423106 7.5 8.5625 C6.78457031 7.85544922 6.06914063 7.14839844 5.33203125 6.41992188 C4.65527344 5.74638672 3.97851562 5.07285156 3.28125 4.37890625 C2.65283203 3.7557251 2.02441406 3.13254395 1.37695312 2.49047852 C0 1 0 1 0 0 Z " fill="#AE54E8" transform="translate(703,310)"/>
<path d="M0 0 C10.55808656 2.89066059 10.55808656 2.89066059 15 6 C14.67 6.99 14.34 7.98 14 9 C7.07 5.04 7.07 5.04 0 1 C0 0.67 0 0.34 0 0 Z " fill="#CE5FF1" transform="translate(712,146)"/>
<path d="M0 0 C1.41655793 -0.0272415 2.83327045 -0.04650467 4.25 -0.0625 C5.43335938 -0.07990234 5.43335938 -0.07990234 6.640625 -0.09765625 C8.90691002 -0.00385306 10.8288895 0.36758937 13 1 C13 1.66 13 2.32 13 3 C15.97 3.495 15.97 3.495 19 4 C19 4.33 19 4.66 19 5 C12.31006781 4.46048934 6.36539272 3.11293829 0 1 C0 0.67 0 0.34 0 0 Z " fill="#D463F4" transform="translate(610,107)"/>
<path d="M0 0 C4.90739916 3.14814286 7.97347282 5.30039229 10 11 C9.67 11.66 9.34 12.32 9 13 C7.4941255 11.21326795 5.9954515 9.42046492 4.5 7.625 C3.6646875 6.62726562 2.829375 5.62953125 1.96875 4.6015625 C0 2 0 2 0 0 Z " fill="#8859DE" transform="translate(174,750)"/>
<path d="M0 0 C0.33 0.66 0.66 1.32 1 2 C-0.24493748 4.28974316 -1.52641528 6.44190034 -2.9375 8.625 C-3.32357422 9.23601563 -3.70964844 9.84703125 -4.10742188 10.4765625 C-5.06446326 11.9889242 -6.03132811 13.49506117 -7 15 C-7.33 14.34 -7.66 13.68 -8 13 C-6.75 9.4375 -6.75 9.4375 -5 6 C-4.01 5.67 -3.02 5.34 -2 5 C-2 3.68 -2 2.36 -2 1 C-1.34 0.67 -0.68 0.34 0 0 Z " fill="#9C56EB" transform="translate(668,614)"/>
<path d="M0 0 C0.66 0.33 1.32 0.66 2 1 C1.01 1.33 0.02 1.66 -1 2 C-1.33 2.99 -1.66 3.98 -2 5 C-5.44450737 7.29633824 -7.93812283 7.54016485 -12 8 C-9.72254211 5.51017465 -7.37664762 3.89631003 -4.4375 2.25 C-3.65246094 1.80140625 -2.86742187 1.3528125 -2.05859375 0.890625 C-1.37925781 0.59671875 -0.69992187 0.3028125 0 0 Z " fill="#9158E9" transform="translate(391,710)"/>
<path d="M0 0 C3.25543229 0.34879632 4.01873107 1.02133261 6.25 3.5625 C6.8275 4.366875 7.405 5.17125 8 6 C8.66 5.67 9.32 5.34 10 5 C10.99 6.485 10.99 6.485 12 8 C11.67 8.99 11.34 9.98 11 11 C9.35086118 9.54540569 7.70578218 8.08620743 6.0625 6.625 C5.14597656 5.81289063 4.22945312 5.00078125 3.28515625 4.1640625 C1 2 1 2 0 0 Z " fill="#8357DA" transform="translate(228,811)"/>
<path d="M0 0 C0.66 0.33 1.32 0.66 2 1 C1.01 1.66 0.02 2.32 -1 3 C0.98 4.32 2.96 5.64 5 7 C1.06329512 8.31223496 -1.12488144 7.24296256 -5 6 C-5 4.68 -5 3.36 -5 2 C-2.625 0.9375 -2.625 0.9375 0 0 Z " fill="#915CED" transform="translate(413,787)"/>
<path d="M0 0 C1.44319692 0.90767102 2.87934106 1.82656106 4.3125 2.75 C5.11300781 3.26046875 5.91351562 3.7709375 6.73828125 4.296875 C9.00368861 6.00277761 10.42684167 7.65808145 12 10 C11.443125 9.71125 10.88625 9.4225 10.3125 9.125 C7.99356912 7.94831521 7.99356912 7.94831521 5.4375 7.0625 C2.96638071 5.98534544 1.62351211 5.13620014 0 3 C0 2.01 0 1.02 0 0 Z " fill="#C058E6" transform="translate(774,185)"/>
<path d="M0 0 C7.37297297 2.34594595 7.37297297 2.34594595 10 4 C10.33 4.99 10.66 5.98 11 7 C6.76570244 5.68938409 2.92592596 4.05643741 -1 2 C-0.67 1.34 -0.34 0.68 0 0 Z " fill="#885AE2" transform="translate(326,878)"/>
<path d="M0 0 C0 3.77910478 -0.99703962 4.46106101 -3.5 7.1875 C-4.47453125 8.26064453 -4.47453125 8.26064453 -5.46875 9.35546875 C-5.9740625 9.89816406 -6.479375 10.44085937 -7 11 C-7 8.16032769 -6.59732819 5.76264289 -6 3 C-5.34 3 -4.68 3 -4 3 C-3.67 2.34 -3.34 1.68 -3 1 C-2.01 0.67 -1.02 0.34 0 0 Z " fill="#8755DA" transform="translate(838,765)"/>
<path d="M0 0 C4.99275057 1.27721526 7.57611908 3.17330957 11 7 C7.41584854 7 6.58796261 6.21108216 3.8125 4.0625 C3.09707031 3.51722656 2.38164062 2.97195313 1.64453125 2.41015625 C1.10183594 1.94480469 0.55914062 1.47945312 0 1 C0 0.67 0 0.34 0 0 Z " fill="#8558DD" transform="translate(261,839)"/>
<path d="M0 0 C0.99 0 1.98 0 3 0 C1.45454854 5.47932789 -1.15543212 10.11429181 -4 15 C-4.33 14.34 -4.66 13.68 -5 13 C-4.2578125 11.23046875 -4.2578125 11.23046875 -3.125 9.1875 C-1.50538112 6.12139391 -0.43495184 3.47961473 0 0 Z " fill="#8B53D8" transform="translate(881,696)"/>
<path d="M0 0 C0 0.99 0 1.98 0 3 C-1.96875 4.60546875 -1.96875 4.60546875 -4.5 6.1875 C-5.3353125 6.71730469 -6.170625 7.24710938 -7.03125 7.79296875 C-7.6809375 8.19128906 -8.330625 8.58960938 -9 9 C-9.66 8.67 -10.32 8.34 -11 8 C-7.61831569 4.31993178 -4.57478244 2.0214155 0 0 Z " fill="#BE61F3" transform="translate(280,163)"/>
<path d="M0 0 C2.125 0.375 2.125 0.375 4 1 C4 1.99 4 2.98 4 4 C6.97 4.495 6.97 4.495 10 5 C10.33 5.99 10.66 6.98 11 8 C6.1725201 6.58707905 2.2837641 4.57025846 -2 2 C-1.34 1.34 -0.68 0.68 0 0 Z " fill="#8457DD" transform="translate(314,871)"/>
<path d="M0 0 C2.64 0.33 5.28 0.66 8 1 C8.66 2.98 9.32 4.96 10 7 C5.56541027 5.6062718 3.12621626 3.39417765 0 0 Z " fill="#8457DD" transform="translate(272,847)"/>
<path d="M0 0 C0.66 0.33 1.32 0.66 2 1 C-0.64 3.97 -3.28 6.94 -6 10 C-6.99 9.34 -7.98 8.68 -9 8 C-6.03 5.36 -3.06 2.72 0 0 Z " fill="#8F55E7" transform="translate(686,730)"/>
<path d="M0 0 C4.04420651 1.77945087 7.46078487 4.39529673 11 7 C9 8 9 8 6.625 7.375 C3.49713094 5.7365924 1.99496262 3.88161267 0 1 C0 0.67 0 0.34 0 0 Z " fill="#C159E6" transform="translate(763,177)"/>
<path d="M0 0 C4.95 0.99 4.95 0.99 10 2 C10 2.66 10 3.32 10 4 C11.32 4.66 12.64 5.32 14 6 C8.36971233 5.00641982 4.12019614 4.12019614 0 0 Z " fill="#D664F5" transform="translate(660,122)"/>
<path d="M0 0 C0 3.60573896 -0.81707462 4.41336566 -3 7.1875 C-3.556875 7.90292969 -4.11375 8.61835937 -4.6875 9.35546875 C-5.120625 9.89816406 -5.55375 10.44085937 -6 11 C-6 7.52710626 -5.35830457 5.19201574 -4 2 C-1.875 0.625 -1.875 0.625 0 0 Z " fill="#8A57DB" transform="translate(853,745)"/>
<path d="M0 0 C2.31 1.98 4.62 3.96 7 6 C6.67 7.32 6.34 8.64 6 10 C4.99106869 8.90398831 3.99311775 7.79786082 3 6.6875 C2.1646875 5.76517578 2.1646875 5.76517578 1.3125 4.82421875 C0 3 0 3 0 0 Z " fill="#C45BEA" transform="translate(826,235)"/>
<path d="M0 0 C-6.05473373 2.57886807 -11.44074057 3.61020794 -18 4 C-14.89724263 1.93149509 -12.5900783 1.21441918 -9 0.3125 C-7.948125 0.04050781 -6.89625 -0.23148437 -5.8125 -0.51171875 C-3 -1 -3 -1 0 0 Z " fill="#D569FC" transform="translate(411,109)"/>
<path d="M0 0 C0.33 0.66 0.66 1.32 1 2 C-0.89732848 6.11087838 -3.0054207 7.94872955 -7 10 C-5.33248852 6.05860922 -2.77289351 3.2107188 0 0 Z " fill="#A55AE5" transform="translate(189,244)"/>
<path d="M0 0 C-0.639375 0.103125 -1.27875 0.20625 -1.9375 0.3125 C-2.618125 0.539375 -3.29875 0.76625 -4 1 C-4.33 1.99 -4.66 2.98 -5 4 C-7.375 4.625 -7.375 4.625 -10 5 C-10.66 4.34 -11.32 3.68 -12 3 C-10.5682384 2.30062798 -9.12932968 1.61587282 -7.6875 0.9375 C-6.48673828 0.36322266 -6.48673828 0.36322266 -5.26171875 -0.22265625 C-3 -1 -3 -1 0 0 Z " fill="#B859E6" transform="translate(349,128)"/>
<path d="M0 0 C1 3 1 3 0.00390625 5.48046875 C-0.47175781 6.37378906 -0.94742188 7.26710938 -1.4375 8.1875 C-1.91058594 9.08855469 -2.38367188 9.98960937 -2.87109375 10.91796875 C-3.24363281 11.60503906 -3.61617187 12.29210937 -4 13 C-4.66 12.01 -5.32 11.02 -6 10 C-4.96501431 6.89504293 -4.21350711 6.21350711 -2 4 C-0.82425289 1.90010348 -0.82425289 1.90010348 0 0 Z " fill="#8F54DB" transform="translate(894,673)"/>
<path d="M0 0 C0.66 0.33 1.32 0.66 2 1 C0.02 3.31 -1.96 5.62 -4 8 C-5.32 7.67 -6.64 7.34 -8 7 C-5.36 4.69 -2.72 2.38 0 0 Z " fill="#9955E9" transform="translate(561,608)"/>
<path d="M0 0 C0.99 0.33 1.98 0.66 3 1 C0.69 3.31 -1.62 5.62 -4 8 C-4.66 7.67 -5.32 7.34 -6 7 C-4.15794162 4.45620509 -2.27521866 2.16687491 0 0 Z " fill="#8757DC" transform="translate(789,815)"/>
<path d="M0 0 C0 0.66 0 1.32 0 2 C2.31 2.33 4.62 2.66 7 3 C7 3.33 7 3.66 7 4 C1.9697924 3.47462276 -3.01885239 2.89405214 -8 2 C-8 1.67 -8 1.34 -8 1 C-2.25 0 -2.25 0 0 0 Z " fill="#BB64FB" transform="translate(535,327)"/>
<path d="M0 0 C2.51699845 2.51699845 3.10964078 4.57554146 4 8 C3.625 10.375 3.625 10.375 3 12 C2.67 10.35 2.34 8.7 2 7 C1.34 7 0.68 7 0 7 C0 4.69 0 2.38 0 0 Z " fill="#BE64F7" transform="translate(772,411)"/>
<path d="M0 0 C4.12751449 0.60698743 7.3321148 2.03810791 11 4 C11 4.33 11 4.66 11 5 C8.69 4.67 6.38 4.34 4 4 C4 3.34 4 2.68 4 2 C2.68 1.34 1.36 0.68 0 0 Z " fill="#C260F7" transform="translate(627,259)"/>
<path d="M0 0 C4.875 4.625 4.875 4.625 6 8 C5.01 9.485 5.01 9.485 4 11 C3.32591692 9.73308493 2.66099503 8.46129251 2 7.1875 C1.62875 6.47980469 1.2575 5.77210938 0.875 5.04296875 C0 3 0 3 0 0 Z " fill="#8857D9" transform="translate(130,673)"/>
<path d="M0 0 C1.32940404 3.98821211 0.43803613 6.11730245 -1 10 C-1.99 10.33 -2.98 10.66 -4 11 C-3.52269162 9.5410574 -3.04308958 8.08286504 -2.5625 6.625 C-2.29566406 5.81289063 -2.02882812 5.00078125 -1.75390625 4.1640625 C-1 2 -1 2 0 0 Z " fill="#9B58E3" transform="translate(139,321)"/>
<path d="M0 0 C2.875 0.25 2.875 0.25 6 1 C7.375 3.0625 7.375 3.0625 8 5 C4.20411134 4.45773019 2.52788007 2.79872437 0 0 Z " fill="#CD5FF0" transform="translate(728,155)"/>
<path d="M0 0 C-5.75 4 -5.75 4 -8 4 C-5.97675095 -0.48005146 -4.79569304 -1.43870791 0 0 Z " fill="#8557DE" transform="translate(734,861)"/>
<path d="M0 0 C0.598125 0.20625 1.19625 0.4125 1.8125 0.625 C-0.1675 1.945 -2.1475 3.265 -4.1875 4.625 C-4.5175 3.635 -4.8475 2.645 -5.1875 1.625 C-2.1875 -0.375 -2.1875 -0.375 0 0 Z " fill="#905BEC" transform="translate(328.1875,747.375)"/>
<path d="M0 0 C1.9375 0.625 1.9375 0.625 4 2 C4.75 5.125 4.75 5.125 5 8 C2.20127563 5.47211993 0.54226981 3.79588866 0 0 Z " fill="#8959DF" transform="translate(153,718)"/>
<path d="M0 0 C0.99 0.33 1.98 0.66 3 1 C4.1875 4.5625 4.1875 4.5625 5 8 C3.0625 7.375 3.0625 7.375 1 6 C0.25 2.875 0.25 2.875 0 0 Z " fill="#BD5EF4" transform="translate(741,351)"/>
<path d="M0 0 C0.99 0.33 1.98 0.66 3 1 C3.73046875 2.84765625 3.73046875 2.84765625 4.1875 5.0625 C4.34605469 5.79597656 4.50460937 6.52945312 4.66796875 7.28515625 C4.83232422 8.13400391 4.83232422 8.13400391 5 9 C1.9083091 6.47043472 1.09068668 3.77545388 0 0 Z " fill="#C760F3" transform="translate(874,304)"/>
<path d="M0 0 C4 1 4 1 4 1 Z " fill="#C15BE1" transform="translate(524,92)"/>
<path d="" fill="#9461DE" transform="translate(0,0)"/>
<path d="" fill="#AF61F3" transform="translate(0,0)"/>
<path d="M0 0 C3 1 3 1 3 1 Z " fill="#B75EE2" transform="translate(305,144)"/>
<path d="M0 0 C3 1 3 1 3 1 Z " fill="#BE5EE1" transform="translate(409,104)"/>
<path d="M0 0 C3 1 3 1 3 1 Z " fill="#BE5DE1" transform="translate(449,96)"/>
<path d="M0 0 C2 1 2 1 2 1 Z " fill="#895FD6" transform="translate(575,923)"/>
<path d="M0 0 C2 1 2 1 2 1 Z " fill="#8B5FD8" transform="translate(596,919)"/>
<path d="" fill="#985FEE" transform="translate(0,0)"/>
<path d="M0 0 C2 1 2 1 2 1 Z " fill="#9860F1" transform="translate(439,795)"/>
<path d="M0 0 C2 1 2 1 2 1 Z " fill="#9A65EE" transform="translate(625,768)"/>
<path d="" fill="#AC64F2" transform="translate(0,0)"/>
<path d="" fill="#B466F2" transform="translate(0,0)"/>
<path d="M0 0 C2 1 2 1 2 1 Z " fill="#B163F0" transform="translate(508,407)"/>
<path d="" fill="#BC61F1" transform="translate(0,0)"/>
<path d="" fill="#BE60F1" transform="translate(0,0)"/>
<path d="" fill="#BE61EF" transform="translate(0,0)"/>
<path d="" fill="#C061F3" transform="translate(0,0)"/>
<path d="" fill="#C060F0" transform="translate(0,0)"/>
<path d="M0 0 C2 1 2 1 2 1 Z " fill="#BE62F2" transform="translate(628,263)"/>
<path d="M0 0 C2 1 2 1 2 1 Z " fill="#BC65F1" transform="translate(608,255)"/>
<path d="M0 0 C2 1 2 1 2 1 Z " fill="#C162F3" transform="translate(594,250)"/>
<path d="M0 0 C2 1 2 1 2 1 Z " fill="#BB64EF" transform="translate(584,247)"/>
<path d="M0 0 C2 1 2 1 2 1 Z " fill="#C061F3" transform="translate(570,244)"/>
<path d="" fill="#BE5ADC" transform="translate(0,0)"/>
<path d="M0 0 C2 1 2 1 2 1 Z " fill="#BB5FE0" transform="translate(360,120)"/>
<path d="M0 0 C2 1 2 1 2 1 Z " fill="#C15CE2" transform="translate(590,99)"/>
<path d="M0 0 C2 1 2 1 2 1 Z " fill="#BF5BDC" transform="translate(574,96)"/>
<path d="" fill="#885ED8" transform="translate(0,0)"/>
<path d="" fill="#875FD9" transform="translate(0,0)"/>
<path d="" fill="#895ED9" transform="translate(0,0)"/>
<path d="" fill="#875FD8" transform="translate(0,0)"/>
<path d="" fill="#8B60DC" transform="translate(0,0)"/>
<path d="" fill="#875ED7" transform="translate(0,0)"/>
<path d="" fill="#875ED7" transform="translate(0,0)"/>
<path d="" fill="#8A5DD6" transform="translate(0,0)"/>
<path d="" fill="#895DD7" transform="translate(0,0)"/>
<path d="" fill="#895FD7" transform="translate(0,0)"/>
<path d="" fill="#875ED7" transform="translate(0,0)"/>
<path d="" fill="#865DD9" transform="translate(0,0)"/>
<path d="" fill="#8960D6" transform="translate(0,0)"/>
<path d="" fill="#855DD4" transform="translate(0,0)"/>
<path d="" fill="#895ED6" transform="translate(0,0)"/>
<path d="" fill="#8A5DD9" transform="translate(0,0)"/>
<path d="" fill="#875CD7" transform="translate(0,0)"/>
<path d="" fill="#865DD7" transform="translate(0,0)"/>
<path d="" fill="#855AD6" transform="translate(0,0)"/>
<path d="" fill="#855FD5" transform="translate(0,0)"/>
<path d="" fill="#875CD5" transform="translate(0,0)"/>
<path d="" fill="#875DD8" transform="translate(0,0)"/>
<path d="" fill="#895ED5" transform="translate(0,0)"/>
<path d="" fill="#8A5FD8" transform="translate(0,0)"/>
<path d="" fill="#855AD4" transform="translate(0,0)"/>
<path d="" fill="#895EDA" transform="translate(0,0)"/>
<path d="" fill="#9862EE" transform="translate(0,0)"/>
<path d="" fill="#9A63F0" transform="translate(0,0)"/>
<path d="" fill="#9860F2" transform="translate(0,0)"/>
<path d="" fill="#885ED7" transform="translate(0,0)"/>
<path d="" fill="#885ED6" transform="translate(0,0)"/>
<path d="" fill="#8A60D9" transform="translate(0,0)"/>
<path d="" fill="#9761EA" transform="translate(0,0)"/>
<path d="" fill="#9C63F0" transform="translate(0,0)"/>
<path d="" fill="#975EEE" transform="translate(0,0)"/>
<path d="" fill="#9564EE" transform="translate(0,0)"/>
<path d="" fill="#9D62F1" transform="translate(0,0)"/>
<path d="" fill="#9A61EC" transform="translate(0,0)"/>
<path d="" fill="#8B61DA" transform="translate(0,0)"/>
<path d="" fill="#9C62EF" transform="translate(0,0)"/>
<path d="" fill="#9462EB" transform="translate(0,0)"/>
<path d="" fill="#9D5FF2" transform="translate(0,0)"/>
<path d="" fill="#9E64EF" transform="translate(0,0)"/>
<path d="" fill="#9B61EE" transform="translate(0,0)"/>
<path d="" fill="#9D5FEE" transform="translate(0,0)"/>
<path d="" fill="#9D5FEF" transform="translate(0,0)"/>
<path d="" fill="#8E5DDB" transform="translate(0,0)"/>
<path d="" fill="#9E62EE" transform="translate(0,0)"/>
<path d="" fill="#9B5DF1" transform="translate(0,0)"/>
<path d="" fill="#9B63EF" transform="translate(0,0)"/>
<path d="" fill="#A065F1" transform="translate(0,0)"/>
<path d="" fill="#9F60F0" transform="translate(0,0)"/>
<path d="" fill="#9A60EE" transform="translate(0,0)"/>
<path d="" fill="#A160F0" transform="translate(0,0)"/>
<path d="" fill="#9F60F3" transform="translate(0,0)"/>
<path d="" fill="#8E62DA" transform="translate(0,0)"/>
<path d="" fill="#A261EF" transform="translate(0,0)"/>
<path d="" fill="#A162F2" transform="translate(0,0)"/>
<path d="" fill="#A063F0" transform="translate(0,0)"/>
<path d="" fill="#A060F0" transform="translate(0,0)"/>
<path d="" fill="#9F5EF0" transform="translate(0,0)"/>
<path d="" fill="#A05FF0" transform="translate(0,0)"/>
<path d="" fill="#A060F0" transform="translate(0,0)"/>
<path d="" fill="#9D61F1" transform="translate(0,0)"/>
<path d="" fill="#9F62F2" transform="translate(0,0)"/>
<path d="" fill="#9060DE" transform="translate(0,0)"/>
<path d="" fill="#A261F3" transform="translate(0,0)"/>
<path d="" fill="#A365F1" transform="translate(0,0)"/>
<path d="" fill="#9F61EF" transform="translate(0,0)"/>
<path d="" fill="#8E60DA" transform="translate(0,0)"/>
<path d="" fill="#9A5EE0" transform="translate(0,0)"/>
<path d="" fill="#9F5FF0" transform="translate(0,0)"/>
<path d="" fill="#905EDC" transform="translate(0,0)"/>
<path d="" fill="#A461F1" transform="translate(0,0)"/>
<path d="" fill="#A661F1" transform="translate(0,0)"/>
<path d="" fill="#A061EF" transform="translate(0,0)"/>
<path d="" fill="#905FDA" transform="translate(0,0)"/>
<path d="" fill="#A862F2" transform="translate(0,0)"/>
<path d="" fill="#9363DA" transform="translate(0,0)"/>
<path d="" fill="#A663EC" transform="translate(0,0)"/>
<path d="" fill="#9163DD" transform="translate(0,0)"/>
<path d="" fill="#A863F4" transform="translate(0,0)"/>
<path d="" fill="#A763F2" transform="translate(0,0)"/>
<path d="" fill="#A762F4" transform="translate(0,0)"/>
<path d="" fill="#A660F1" transform="translate(0,0)"/>
<path d="" fill="#A862F4" transform="translate(0,0)"/>
<path d="" fill="#A360F3" transform="translate(0,0)"/>
<path d="" fill="#A963F3" transform="translate(0,0)"/>
<path d="" fill="#905EDB" transform="translate(0,0)"/>
<path d="" fill="#915EDE" transform="translate(0,0)"/>
<path d="" fill="#9460DD" transform="translate(0,0)"/>
<path d="" fill="#A75FF4" transform="translate(0,0)"/>
<path d="" fill="#9363DD" transform="translate(0,0)"/>
<path d="" fill="#9260DD" transform="translate(0,0)"/>
<path d="" fill="#A964F4" transform="translate(0,0)"/>
<path d="" fill="#A561E2" transform="translate(0,0)"/>
<path d="" fill="#A762F2" transform="translate(0,0)"/>
<path d="" fill="#AC63F1" transform="translate(0,0)"/>
<path d="" fill="#AD65F0" transform="translate(0,0)"/>
<path d="" fill="#AE64F2" transform="translate(0,0)"/>
<path d="" fill="#AE64F4" transform="translate(0,0)"/>
<path d="" fill="#AF63F2" transform="translate(0,0)"/>
<path d="" fill="#AF65F3" transform="translate(0,0)"/>
<path d="" fill="#AE63F3" transform="translate(0,0)"/>
<path d="" fill="#B065F4" transform="translate(0,0)"/>
<path d="" fill="#B164F6" transform="translate(0,0)"/>
<path d="" fill="#B164F3" transform="translate(0,0)"/>
<path d="" fill="#AE63F1" transform="translate(0,0)"/>
<path d="" fill="#B265F4" transform="translate(0,0)"/>
<path d="" fill="#AE64F3" transform="translate(0,0)"/>
<path d="" fill="#AF63F2" transform="translate(0,0)"/>
<path d="" fill="#B163F3" transform="translate(0,0)"/>
<path d="" fill="#B164F5" transform="translate(0,0)"/>
<path d="" fill="#B765F4" transform="translate(0,0)"/>
<path d="" fill="#B663F2" transform="translate(0,0)"/>
<path d="" fill="#B861F1" transform="translate(0,0)"/>
<path d="" fill="#AE5EED" transform="translate(0,0)"/>
<path d="" fill="#B25FF3" transform="translate(0,0)"/>
<path d="" fill="#B665F3" transform="translate(0,0)"/>
<path d="" fill="#B764F3" transform="translate(0,0)"/>
<path d="" fill="#B564F2" transform="translate(0,0)"/>
<path d="" fill="#B765F2" transform="translate(0,0)"/>
<path d="" fill="#B464F3" transform="translate(0,0)"/>
<path d="" fill="#B862F2" transform="translate(0,0)"/>
<path d="" fill="#B363F5" transform="translate(0,0)"/>
<path d="" fill="#BA62F3" transform="translate(0,0)"/>
<path d="" fill="#B164F2" transform="translate(0,0)"/>
<path d="" fill="#BA61F1" transform="translate(0,0)"/>
<path d="" fill="#B064F5" transform="translate(0,0)"/>
<path d="" fill="#B063F3" transform="translate(0,0)"/>
<path d="" fill="#BA62F3" transform="translate(0,0)"/>
<path d="" fill="#BC62F1" transform="translate(0,0)"/>
<path d="" fill="#BE62F2" transform="translate(0,0)"/>
<path d="" fill="#BC61F4" transform="translate(0,0)"/>
<path d="" fill="#BC60F3" transform="translate(0,0)"/>
<path d="" fill="#BE5EF1" transform="translate(0,0)"/>
<path d="" fill="#AE62F4" transform="translate(0,0)"/>
<path d="" fill="#BE61F1" transform="translate(0,0)"/>
<path d="" fill="#BE60F3" transform="translate(0,0)"/>
<path d="" fill="#B159D5" transform="translate(0,0)"/>
<path d="" fill="#B664ED" transform="translate(0,0)"/>
<path d="" fill="#BB5EEF" transform="translate(0,0)"/>
<path d="" fill="#BA60F4" transform="translate(0,0)"/>
<path d="" fill="#B961F5" transform="translate(0,0)"/>
<path d="" fill="#B55ADD" transform="translate(0,0)"/>
<path d="" fill="#C161F3" transform="translate(0,0)"/>
<path d="" fill="#BA61F4" transform="translate(0,0)"/>
<path d="" fill="#BF62F3" transform="translate(0,0)"/>
<path d="" fill="#B964F5" transform="translate(0,0)"/>
<path d="" fill="#B864F5" transform="translate(0,0)"/>
<path d="" fill="#C061F0" transform="translate(0,0)"/>
<path d="" fill="#C063F3" transform="translate(0,0)"/>
<path d="" fill="#C161F5" transform="translate(0,0)"/>
<path d="" fill="#B75EDD" transform="translate(0,0)"/>
<path d="" fill="#BF60F1" transform="translate(0,0)"/>
<path d="" fill="#C261F4" transform="translate(0,0)"/>
<path d="" fill="#BF5FF2" transform="translate(0,0)"/>
<path d="" fill="#C161F5" transform="translate(0,0)"/>
<path d="" fill="#C263F5" transform="translate(0,0)"/>
<path d="" fill="#A15EE2" transform="translate(0,0)"/>
<path d="" fill="#C060F1" transform="translate(0,0)"/>
<path d="" fill="#C363F4" transform="translate(0,0)"/>
<path d="" fill="#C063F2" transform="translate(0,0)"/>
<path d="" fill="#C261F5" transform="translate(0,0)"/>
<path d="" fill="#C463F2" transform="translate(0,0)"/>
<path d="" fill="#BF64F1" transform="translate(0,0)"/>
<path d="" fill="#C060F4" transform="translate(0,0)"/>
<path d="" fill="#B95EE0" transform="translate(0,0)"/>
<path d="" fill="#BF64F5" transform="translate(0,0)"/>
<path d="" fill="#C065F6" transform="translate(0,0)"/>
<path d="" fill="#C064F5" transform="translate(0,0)"/>
<path d="" fill="#C063F4" transform="translate(0,0)"/>
<path d="" fill="#BF67F1" transform="translate(0,0)"/>
<path d="" fill="#BE65F3" transform="translate(0,0)"/>
<path d="" fill="#BD63F5" transform="translate(0,0)"/>
<path d="" fill="#BE62F5" transform="translate(0,0)"/>
<path d="" fill="#BE63F5" transform="translate(0,0)"/>
<path d="" fill="#BE63F5" transform="translate(0,0)"/>
<path d="" fill="#B863F4" transform="translate(0,0)"/>
<path d="" fill="#AA60E3" transform="translate(0,0)"/>
<path d="" fill="#B959DC" transform="translate(0,0)"/>
<path d="" fill="#BB5BDC" transform="translate(0,0)"/>
<path d="" fill="#AD5EE2" transform="translate(0,0)"/>
<path d="" fill="#AC5DE1" transform="translate(0,0)"/>
<path d="" fill="#B05EE0" transform="translate(0,0)"/>
<path d="" fill="#AE5DDE" transform="translate(0,0)"/>
<path d="" fill="#B15BE0" transform="translate(0,0)"/>
<path d="" fill="#B25CE0" transform="translate(0,0)"/>
<path d="" fill="#B35CDF" transform="translate(0,0)"/>
<path d="" fill="#BF58DF" transform="translate(0,0)"/>
<path d="" fill="#C059DE" transform="translate(0,0)"/>
<path d="" fill="#B35CDF" transform="translate(0,0)"/>
<path d="" fill="#B55BDD" transform="translate(0,0)"/>
<path d="" fill="#B65CE1" transform="translate(0,0)"/>
<path d="" fill="#B85FE2" transform="translate(0,0)"/>
<path d="" fill="#C05ADE" transform="translate(0,0)"/>
<path d="" fill="#BA5AE0" transform="translate(0,0)"/>
<path d="" fill="#C35DDF" transform="translate(0,0)"/>
<path d="" fill="#C25BDF" transform="translate(0,0)"/>
<path d="" fill="#C05CDE" transform="translate(0,0)"/>
<path d="" fill="#C15BDE" transform="translate(0,0)"/>
<path d="" fill="#BB5EE2" transform="translate(0,0)"/>
<path d="" fill="#C45AE0" transform="translate(0,0)"/>
<path d="" fill="#C05FE0" transform="translate(0,0)"/>
<path d="" fill="#C05EE1" transform="translate(0,0)"/>
<path d="" fill="#C15EE0" transform="translate(0,0)"/>
<path d="" fill="#C15DE1" transform="translate(0,0)"/>
<path d="" fill="#C25EE1" transform="translate(0,0)"/>
<path d="" fill="#C25DE1" transform="translate(0,0)"/>
</svg>
